<?xml version="1.0" standalone="no"?><!DOCTYPE svg PUBLIC "-//W3C//DTD SVG 1.1//EN"
  "http://www.w3.org/Graphics/SVG/1.1/DTD/svg11.dtd">
<svg t="1617849417137" class="icon" viewBox="0 0 1079 1024" version="1.1" xmlns="http://www.w3.org/2000/svg" p-id="2044"
     xmlns:xlink="http://www.w3.org/1999/xlink" width="210.7421875" height="200">
  <defs>
    <style type="text/css"></style>
  </defs>
  <path
    d="M194.958961 802.177662l166.49974 47.343377a39.896104 39.896104 0 0 0 36.97039-7.979221l163.042078-139.902337 134.582857 89.633246a40.162078 40.162078 0 0 0 48.673247-3.723636l319.168831-292.571429a39.896104 39.896104 0 1 0-53.194805-59.046233L714.14026 707.490909l-132.987013-89.101299a39.896104 39.896104 0 0 0-48.141299 2.925715l-169.691429 145.753766-166.233766-47.343377a39.63013 39.63013 0 0 0-35.906493 7.181299L79.792208 792.070649v-83.781818l86.973506-65.42961 139.902338 46.545454a39.63013 39.63013 0 0 0 42.28987-11.170909l193.629091-218.098701 159.584416 68.621299a39.63013 39.63013 0 0 0 50.801039-17.82026l212.77922-398.961039a39.896104 39.896104 0 0 0-70.217143-37.768312l-195.224935 366.778182-152.669091-65.42961a40.162078 40.162078 0 0 0-45.481558 10.107013l-195.224935 219.694545-134.848831-44.683636a39.098182 39.098182 0 0 0-36.438442 5.851428L79.792208 608.282597V39.896104a39.896104 39.896104 0 0 0-79.792208 0V984.103896a39.896104 39.896104 0 0 0 39.896104 39.896104H984.103896a39.896104 39.896104 0 0 0 0-79.792208H79.792208v-50.003117z"
    p-id="2045" fill="#ffffff"></path>
</svg>
