<?xml version="1.0" standalone="no"?><!DOCTYPE svg PUBLIC "-//W3C//DTD SVG 1.1//EN"
  "http://www.w3.org/Graphics/SVG/1.1/DTD/svg11.dtd">
<svg t="1617346411005" class="icon" viewBox="0 0 1027 1024" version="1.1" xmlns="http://www.w3.org/2000/svg" p-id="1609"
     xmlns:xlink="http://www.w3.org/1999/xlink" width="200.5859375" height="200">
  <defs>
    <style type="text/css"></style>
  </defs>
  <path
    d="M655.36 855.04a104.106667 104.106667 0 0 1-61.44-20.48c-35.84-25.6-158.72-150.186667-172.373333-163.84a25.6 25.6 0 1 1 37.546666-37.546667c37.546667 37.546667 139.946667 138.24 167.253334 158.72a51.2 51.2 0 0 0 39.253333 8.533334 69.973333 69.973333 0 0 0 42.666667-32.426667c20.48-30.72-1.706667-64.853333-6.826667-71.68L493.226667 493.226667a27.306667 27.306667 0 0 1 37.546666-37.546667l211.626667 206.506667c18.773333 23.893333 47.786667 81.92 10.24 134.826666a121.173333 121.173333 0 0 1-80.213333 56.32z"
    fill="#d81e06" p-id="1610"></path>
  <path
    d="M372.053333 855.04h-17.066666a121.173333 121.173333 0 0 1-80.213334-54.613333c-35.84-54.613333-8.533333-112.64 10.24-134.826667h1.706667l209.92-204.8a27.306667 27.306667 0 0 1 37.546667 37.546667L325.973333 696.32c-5.12 5.12-27.306667 39.253333-6.826666 71.68a69.973333 69.973333 0 0 0 44.373333 32.426667 51.2 51.2 0 0 0 39.253333-8.533334c27.306667-20.48 133.12-124.586667 170.666667-163.84a25.6 25.6 0 1 1 37.546667 37.546667c-13.653333 15.36-141.653333 143.36-177.493334 168.96a104.106667 104.106667 0 0 1-61.44 20.48z"
    fill="#d81e06" p-id="1611"></path>
  <path
    d="M512 501.76a27.306667 27.306667 0 0 1-18.773333-46.08l208.213333-203.093333c5.12-5.12 27.306667-39.253333 6.826667-71.68a69.973333 69.973333 0 0 0-44.373334-32.426667 51.2 51.2 0 0 0-39.253333 8.533333c-27.306667 20.48-129.706667 121.173333-167.253333 158.72a25.6 25.6 0 1 1-37.546667-37.546666c13.653333-13.653333 138.24-138.24 172.373333-163.84a104.106667 104.106667 0 0 1 80.213334-18.773334 121.173333 121.173333 0 0 1 80.213333 54.613334c35.84 54.613333 8.533333 112.64-10.24 134.826666h-1.706667l-209.92 204.8a25.6 25.6 0 0 1-18.773333 11.946667z"
    fill="#d81e06" p-id="1612"></path>
  <path
    d="M515.413333 501.76a25.6 25.6 0 0 1-18.773333-6.826667L285.013333 286.72c-18.773333-23.893333-47.786667-81.92-10.24-134.826667a121.173333 121.173333 0 0 1 80.213334-54.613333 102.4 102.4 0 0 1 80.213333 18.773333c35.84 25.6 163.84 153.6 177.493333 168.96a25.6 25.6 0 1 1-37.546666 37.546667c-39.253333-39.253333-143.36-143.36-170.666667-163.84a51.2 51.2 0 0 0-39.253333-8.533333 69.973333 69.973333 0 0 0-44.373334 32.426666c-20.48 30.72 1.706667 64.853333 6.826667 71.68l206.506667 201.386667a27.306667 27.306667 0 0 1-18.773334 46.08zM131.413333 585.386667a134.826667 134.826667 0 0 1-83.626666-25.6 110.933333 110.933333 0 0 1-39.253334-92.16c0-66.56 34.133333-95.573333 61.44-109.226667s110.933333-10.24 128 3.413333l63.146667 66.56 56.32-58.026666a25.6 25.6 0 1 1 37.546667 39.253333l-59.733334 59.733333 59.733334 66.56a25.6 25.6 0 0 1-39.253334 35.84l-58.026666-63.146666-69.973334 69.973333h-6.826666a213.333333 213.333333 0 0 1-49.493334 6.826667z m-1.706666-184.32a85.333333 85.333333 0 0 0-44.373334 10.24c-17.066667 10.24-25.6 29.013333-25.6 56.32a59.733333 59.733333 0 0 0 18.773334 51.2c22.186667 17.066667 61.44 15.36 80.213333 11.946666l63.146667-63.146666-56.32-61.44a109.226667 109.226667 0 0 0-35.84-5.12zM904.533333 585.386667a213.333333 213.333333 0 0 1-49.493333-5.12h-6.826667l-71.68-71.68-58.026666 63.146666a25.6 25.6 0 1 1-39.253334-35.84l59.733334-66.56-58.026667-59.733333a25.6 25.6 0 1 1 37.546667-37.546667l56.32 58.026667 63.146666-66.56c17.066667-13.653333 81.92-25.6 128-3.413333s61.44 42.666667 61.44 109.226666a110.933333 110.933333 0 0 1-39.253333 92.16 134.826667 134.826667 0 0 1-83.626667 23.893334zM875.52 529.066667c20.48 3.413333 58.026667 6.826667 80.213333-11.946667a59.733333 59.733333 0 0 0 18.773334-51.2c0-27.306667-8.533333-46.08-25.6-56.32a107.52 107.52 0 0 0-78.506667-5.12l-58.026667 61.44z"
    fill="#d81e06" p-id="1613"></path>
</svg>
